# xmcd CD database file
#
# Track frame offsets:
#	150
#	32067
#	63637
#	99332
#	132282
#	153740
#	177777
#	211740
#	273550
#	298370
#
# Disc length: 4477 seconds
#
# Revision: 0
# Processed by: cddbd v1.5.1PL2 Copyright (c) Steve Scherf et al.
# Submitted via: CDex 1.51
#
DISCID=97117b0a
DTITLE=Jacques Vidal - News of Bop
DYEAR=1995
DGENRE=Jazz
TTITLE0=Valse Tzigane
TTITLE1=Diabolo
TTITLE2=Phil Drums
TTITLE3=Sweet Romance
TTITLE4=Black Nile
TTITLE5=Blues +
TTITLE6=News of Bop
TTITLE7=All That Noise
TTITLE8=Horizon
TTITLE9=L'esprit Roumain
EXTD=YEAR: 1995
EXTT0=
EXTT1=
EXTT2=
EXTT3=
EXTT4=
EXTT5=
EXTT6=
EXTT7=
EXTT8=
EXTT9=
PLAYORDER=
